<svg xmlns="http://www.w3.org/2000/svg" viewBox="0 0 512 512" width="512" height="512">
  <circle cx="256" cy="256" r="256" fill="#0a0a0a"/>
  <g transform="translate(256 256)">
    <path d="M-180 0 C-180 -99.4 -99.4 -180 0 -180 C99.4 -180 180 -99.4 180 0" fill="none" stroke="#d92525" stroke-width="32" stroke-linecap="round"/>
    <path d="M-135 0 C-135 -74.6 -74.6 -135 0 -135 C74.6 -135 135 -74.6 135 0" fill="none" stroke="#f2c94c" stroke-width="32" stroke-linecap="round"/>
    <path d="M-90 0 C-90 -49.7 -49.7 -90 0 -90 C49.7 -90 90 -49.7 90 0" fill="none" stroke="#27ae60" stroke-width="32" stroke-linecap="round"/>

    <circle cx="0" cy="0" r="55" fill="none" stroke="#f2c94c" stroke-width="12"/>
    <circle cx="0" cy="0" r="35" fill="#0a0a0a"/>
    <ellipse cx="12" cy="-12" rx="8" ry="12" fill="#ffffff" opacity="0.2" transform="rotate(-45)"/>
  </g>
</svg>